<svg width="84" height="80" viewBox="0 0 84 80" fill="none" xmlns="http://www.w3.org/2000/svg">
<g filter="url(#filter0_d_610_572)">
<path d="M41.1528 2.49318C38.7461 1.33099 36.1403 0.487459 33.4259 8.6224e-05C33.4021 -0.000702201 33.3784 0.00392424 33.3566 0.0136403C33.3347 0.0233565 33.3151 0.0379263 33.2992 0.0563219C32.9735 0.67491 32.5935 1.48095 32.3402 2.09954C29.4611 1.64965 26.5333 1.64965 23.6542 2.09954C23.4009 1.4622 23.0209 0.67491 22.6771 0.0563219C22.659 0.0188317 22.6047 8.6224e-05 22.5504 8.6224e-05C19.836 0.487459 17.2483 1.33099 14.8235 2.49318C14.8054 2.49318 14.7873 2.51193 14.7692 2.53067C9.84718 10.1599 8.49 17.583 9.15954 24.9311C9.15954 24.9685 9.17764 25.006 9.21383 25.0248C12.4711 27.4991 15.6016 28.9987 18.696 29.9922C18.7503 30.011 18.8046 29.9922 18.8227 29.9547C19.5465 28.9238 20.1979 27.8365 20.7589 26.6931C20.7951 26.6181 20.7589 26.5431 20.6865 26.5244C19.6551 26.112 18.6779 25.6246 17.7188 25.0623C17.6464 25.0248 17.6464 24.9123 17.7007 24.8561C17.8998 24.7061 18.0988 24.5374 18.2979 24.3875C18.3341 24.35 18.3884 24.35 18.4246 24.3687C24.6495 27.3117 31.363 27.3117 37.5156 24.3687C37.5517 24.35 37.606 24.35 37.6422 24.3875C37.8413 24.5562 38.0403 24.7061 38.2394 24.8748C38.3118 24.9311 38.3118 25.0435 38.2213 25.081C37.2803 25.6621 36.285 26.1307 35.2536 26.5431C35.1812 26.5619 35.1631 26.6556 35.1812 26.7118C35.7603 27.8553 36.4117 28.9425 37.1175 29.9735C37.1717 29.9922 37.226 30.011 37.2803 29.9922C40.3928 28.9987 43.5233 27.4991 46.7806 25.0248C46.8168 25.006 46.8349 24.9685 46.8349 24.9311C47.6311 16.4395 45.5139 9.07271 41.2252 2.53067C41.2071 2.51193 41.189 2.49318 41.1528 2.49318ZM21.6999 20.451C19.836 20.451 18.2798 18.6702 18.2798 16.477C18.2798 14.2838 19.7998 12.5031 21.6999 12.5031C23.618 12.5031 25.1381 14.3026 25.12 16.477C25.12 18.6702 23.5999 20.451 21.6999 20.451ZM34.3126 20.451C32.4487 20.451 30.8925 18.6702 30.8925 16.477C30.8925 14.2838 32.4126 12.5031 34.3126 12.5031C36.2308 12.5031 37.7508 14.3026 37.7327 16.477C37.7327 18.6702 36.2308 20.451 34.3126 20.451Z" fill="url(#paint0_linear_610_572)"/>
</g>
<defs>
<filter id="filter0_d_610_572" x="0.4" y="0" width="83.2" height="79.6" filterUnits="userSpaceOnUse" color-interpolation-filters="sRGB">
<feFlood flood-opacity="0" result="BackgroundImageFix"/>
<feColorMatrix in="SourceAlpha" type="matrix" values="0 0 0 0 0 0 0 0 0 0 0 0 0 0 0 0 0 0 127 0" result="hardAlpha"/>
<feOffset dx="14" dy="27"/>
<feGaussianBlur stdDeviation="11.3"/>
<feComposite in2="hardAlpha" operator="out"/>
<feColorMatrix type="matrix" values="0 0 0 0 0.0705882 0 0 0 0 0.0431373 0 0 0 0 0.0784314 0 0 0 0.18 0"/>
<feBlend mode="normal" in2="BackgroundImageFix" result="effect1_dropShadow_610_572"/>
<feBlend mode="normal" in="SourceGraphic" in2="effect1_dropShadow_610_572" result="shape"/>
</filter>
<linearGradient id="paint0_linear_610_572" x1="28" y1="0" x2="28" y2="30" gradientUnits="userSpaceOnUse">
<stop stop-color="#FFB3D3"/>
<stop offset="1" stop-color="white"/>
</linearGradient>
</defs>
</svg>
