<svg width="673" height="88" viewBox="0 0 673 88" fill="none" xmlns="http://www.w3.org/2000/svg">
<g filter="url(#filter0_d_610_589)">
<path d="M73.3725 12.6305L72.7537 16.3707C72.5001 17.9118 71.1294 19.0454 69.5223 19.0454H63.0614L63.6801 15.3051C63.9337 13.764 65.3045 12.6305 66.9115 12.6305H73.3725ZM67.9545 22.2528H62.5322L59.3202 41.7012C59.0031 43.6266 60.5336 45.3717 62.5432 45.3717H67.9654L71.1775 25.9231C71.4945 23.9977 69.964 22.2528 67.9545 22.2528ZM45.6046 12.605H32.4093L31.9523 15.3773C31.6353 17.3005 33.1658 19.0432 35.1708 19.0432H42.9021C45.8538 19.0432 48.1037 21.6054 47.6358 24.435C47.1723 27.2434 44.6775 29.3067 41.7477 29.3067H40.5976H38.9031H32.4312C30.8307 29.3067 29.4663 30.436 29.2127 31.9707L27 45.346H33.4785C35.0746 45.346 36.4367 44.221 36.6882 42.6905L37.8383 35.7237H44.1375C50.4082 35.7237 55.7498 31.3021 56.7425 25.2926C57.8421 18.6378 52.5466 12.605 45.6046 12.605ZM142.753 12.6283H133.903C132.827 12.6283 131.821 13.1484 131.22 14.0145L124.811 23.2484L121.717 14.7426C121.256 13.4774 120.025 12.6305 118.641 12.6305H110.376L105.577 41.6802C105.26 43.6033 106.79 45.3481 108.798 45.3481H114.222L117.15 27.6212L118.739 31.9941L119.413 33.843C119.857 35.0614 120.893 36.0251 122.196 36.2883C123.714 36.5961 125.229 35.9743 126.066 34.7685L127.992 31.9941L131.027 27.6212L128.1 45.3481H134.593C136.183 45.3481 137.536 44.2275 137.788 42.7055L142.753 12.6305V12.6283ZM103.95 19.6037L105.092 12.6283H88.9687C83.028 12.6283 77.9686 16.8165 77.0262 22.5097L75.4978 31.7669C74.3193 38.9014 79.9954 45.3673 87.4402 45.3673C94.4938 45.3673 100.504 40.3938 101.622 33.6307L101.948 31.6587C102.262 29.7503 100.745 28.0203 98.7529 28.0203H89.3315L88.5006 33.0554C88.3805 33.7793 88.9577 34.4352 89.712 34.4352H90.7964C91.5508 34.4352 92.128 35.0912 92.0078 35.8149C91.6513 37.9696 89.7426 39.5553 87.4992 39.566C85.3763 39.5766 83.7671 37.6978 84.1038 35.6621L86.3362 22.1467C86.7078 19.9008 88.7652 18.2727 91.1331 18.4022C92.9392 18.502 94.3211 20.0197 94.3211 21.7773C94.3211 22.0363 94.5374 22.2443 94.802 22.2443H100.756C102.345 22.2443 103.701 21.1214 103.95 19.5973V19.6037ZM163.87 12H157.193C151.98 12 147.54 15.6745 146.715 20.6714L144.227 35.7364C143.337 41.1219 147.623 46 153.24 46H159.917C165.13 46 169.57 42.3254 170.395 37.3286L172.883 22.2634C173.773 16.8781 169.487 12 163.87 12ZM163.632 22.2634L161.391 35.832C161.034 37.993 159.112 39.5828 156.856 39.5828C154.75 39.5828 153.143 37.753 153.476 35.7344L155.717 22.1658C156.073 20.0049 157.995 18.4149 160.251 18.4149C162.357 18.4149 163.964 20.2447 163.632 22.2634Z" fill="url(#paint0_linear_610_589)"/>
</g>
<path d="M265.236 32H262.596C262.296 32 262.116 31.82 262.116 31.52V24.08C262.116 23.78 262.296 23.6 262.596 23.6H265.14C266.856 23.6 267.72 24.296 267.72 25.676V25.976C267.72 26.804 267.324 27.404 266.556 27.704C267.432 27.98 267.9 28.604 267.9 29.504V29.84C267.9 31.244 266.976 32 265.236 32ZM265.14 24.428H263.136V27.332H265.14C266.184 27.332 266.7 26.9 266.7 26.048V25.724C266.7 24.86 266.184 24.428 265.14 24.428ZM265.236 28.148H263.136V31.172H265.236C266.304 31.172 266.868 30.728 266.868 29.828V29.492C266.868 28.592 266.304 28.148 265.236 28.148ZM302.581 32H298.201C297.901 32 297.721 31.82 297.721 31.52V24.08C297.721 23.78 297.901 23.6 298.201 23.6H302.581C302.761 23.6 302.869 23.708 302.869 23.888V24.164C302.869 24.344 302.761 24.452 302.581 24.452H298.741V27.296H301.897C302.149 27.296 302.329 27.452 302.329 27.692V27.74C302.329 27.98 302.149 28.148 301.897 28.148H298.741V31.148H302.581C302.761 31.148 302.869 31.256 302.869 31.436V31.712C302.869 31.892 302.761 32 302.581 32ZM334.933 32H334.513C334.333 32 334.213 31.88 334.213 31.7V28.568L331.633 24.188C331.525 23.996 331.501 23.948 331.501 23.84C331.501 23.696 331.621 23.6 331.777 23.6H332.149C332.353 23.6 332.449 23.648 332.581 23.876L334.741 27.608L336.889 23.876C337.021 23.648 337.117 23.6 337.321 23.6H337.657C337.837 23.6 337.933 23.696 337.933 23.84C337.933 23.948 337.909 23.996 337.801 24.188L335.233 28.568V31.7C335.233 31.88 335.113 32 334.933 32ZM369.867 23.468C371.847 23.468 372.987 24.512 372.987 26.336V29.264C372.987 31.088 371.847 32.132 369.867 32.132C367.887 32.132 366.747 31.088 366.747 29.264V26.336C366.747 24.512 367.887 23.468 369.867 23.468ZM367.779 26.276V29.324C367.779 30.608 368.511 31.304 369.867 31.304C371.211 31.304 371.943 30.608 371.943 29.324V26.276C371.943 24.98 371.211 24.296 369.867 24.296C368.511 24.296 367.779 24.992 367.779 26.276ZM403.627 32H403.279C403.099 32 402.979 31.88 402.979 31.7V24.08C402.979 23.78 403.147 23.6 403.471 23.6H403.795C404.071 23.6 404.191 23.672 404.371 23.996L407.995 30.428V23.9C407.995 23.72 408.115 23.6 408.295 23.6H408.655C408.835 23.6 408.955 23.72 408.955 23.9V31.52C408.955 31.82 408.787 32 408.463 32H408.175C407.899 32 407.767 31.904 407.587 31.604L403.927 25.148V31.7C403.927 31.892 403.819 32 403.627 32ZM441.594 32H439.662C439.362 32 439.182 31.82 439.182 31.52V24.08C439.182 23.78 439.362 23.6 439.662 23.6H441.594C443.994 23.6 445.158 24.668 445.158 26.876V28.724C445.158 30.932 443.994 32 441.594 32ZM441.606 24.44H440.202V31.16H441.606C443.334 31.16 444.126 30.404 444.126 28.76V26.84C444.126 25.196 443.334 24.44 441.606 24.44Z" fill="#826B8E"/>
<path d="M510.225 32H505.833C505.413 32 505.149 31.736 505.149 31.316V24.08C505.149 23.792 505.341 23.6 505.629 23.6H506.637C506.937 23.6 507.129 23.792 507.129 24.08V30.44H510.225C510.513 30.44 510.669 30.596 510.669 30.884V31.556C510.669 31.844 510.513 32 510.225 32ZM542.729 32.144C540.617 32.144 539.417 31.112 539.417 29.276V24.08C539.417 23.792 539.609 23.6 539.897 23.6H540.893C541.181 23.6 541.373 23.792 541.373 24.08V29.36C541.373 30.176 541.853 30.608 542.729 30.608C543.605 30.608 544.085 30.176 544.085 29.36V24.08C544.085 23.792 544.277 23.6 544.577 23.6H545.561C545.861 23.6 546.053 23.792 546.053 24.08V29.276C546.053 31.112 544.853 32.144 542.729 32.144ZM578.86 32.144C576.712 32.144 575.488 31.088 575.488 29.228V26.372C575.488 24.512 576.712 23.456 578.86 23.456C580.984 23.456 582.088 24.368 582.088 26.108V26.48C582.088 26.708 581.968 26.828 581.764 26.828H580.504C580.3 26.828 580.18 26.696 580.18 26.492V26.156C580.18 25.304 579.796 24.956 578.848 24.956C577.972 24.956 577.504 25.4 577.504 26.252V29.348C577.504 30.2 577.972 30.644 578.848 30.644C579.796 30.644 580.18 30.296 580.18 29.444V29.012C580.18 28.808 580.3 28.676 580.504 28.676H581.764C581.968 28.676 582.088 28.796 582.088 29.024V29.492C582.088 31.232 580.984 32.144 578.86 32.144ZM613.032 32H612.024C611.736 32 611.544 31.808 611.544 31.52V24.08C611.544 23.792 611.736 23.6 612.024 23.6H613.032C613.332 23.6 613.524 23.792 613.524 24.08V31.52C613.524 31.808 613.332 32 613.032 32ZM617.7 31.976C617.22 32.252 616.632 32.084 616.308 31.604L614.34 28.628C614.148 28.34 614.052 28.052 614.052 27.716C614.052 27.392 614.136 27.128 614.328 26.84L616.212 23.996C616.404 23.708 616.596 23.6 616.896 23.6H617.712C618.012 23.6 618.18 23.756 618.18 24.032C618.18 24.212 618.108 24.368 617.952 24.608L615.924 27.584L618.036 30.608C618.372 31.088 618.228 31.676 617.7 31.976Z" fill="white"/>
<g filter="url(#filter1_d_610_589)">
<path d="M221.6 31.8334C220.485 31.8334 219.583 30.9314 219.583 29.8168V26.9714C219.583 25.8568 220.485 24.9548 221.6 24.9548C222.715 24.9548 223.617 25.8568 223.617 26.9714V29.8168C223.617 30.9314 222.715 31.8334 221.6 31.8334ZM228.383 29.8168C228.383 30.9314 229.285 31.8334 230.4 31.8334C231.515 31.8334 232.417 30.9314 232.417 29.8168V26.9714C232.417 25.8568 231.515 24.9548 230.4 24.9548C229.285 24.9548 228.383 25.8568 228.383 26.9714V29.8168Z" fill="#E90083"/>
<path d="M215 29.1024C215.088 23.0436 220.056 19 226 19C231.945 19 236.912 23.0436 237 29.1024V29.2659C237 30.1328 236.83 30.9912 236.498 31.7921C236.167 32.593 235.681 33.3208 235.068 33.9337C234.455 34.5467 233.727 35.0329 232.926 35.3646C232.125 35.6963 231.267 35.8669 230.4 35.8667H221.6C217.954 35.8667 215 32.9128 215 29.2667V29.1075V29.1024ZM216.467 29.1178V29.2667C216.467 32.1025 218.763 34.4 221.6 34.4H230.4C233.237 34.4 235.533 32.1032 235.533 29.2667V29.1185C235.456 24.0043 231.288 20.4667 226 20.4667C220.712 20.4667 216.543 24.0035 216.467 29.1178Z" fill="#E90083"/>
</g>
<g filter="url(#filter2_d_610_589)">
<path d="M649.6 31.8334C648.485 31.8334 647.583 30.9314 647.583 29.8168V26.9714C647.583 25.8568 648.485 24.9548 649.6 24.9548C650.715 24.9548 651.617 25.8568 651.617 26.9714V29.8168C651.617 30.9314 650.715 31.8334 649.6 31.8334ZM656.383 29.8168C656.383 30.9314 657.285 31.8334 658.4 31.8334C659.515 31.8334 660.417 30.9314 660.417 29.8168V26.9714C660.417 25.8568 659.515 24.9548 658.4 24.9548C657.285 24.9548 656.383 25.8568 656.383 26.9714V29.8168Z" fill="#E90083"/>
<path d="M643 29.1024C643.088 23.0436 648.056 19 654 19C659.945 19 664.912 23.0436 665 29.1024V29.2659C665 30.1328 664.83 30.9912 664.498 31.7921C664.167 32.593 663.681 33.3208 663.068 33.9337C662.455 34.5467 661.727 35.0329 660.926 35.3646C660.125 35.6963 659.267 35.8669 658.4 35.8667H649.6C645.954 35.8667 643 32.9128 643 29.2667V29.1075V29.1024ZM644.467 29.1178V29.2667C644.467 32.1025 646.763 34.4 649.6 34.4H658.4C661.237 34.4 663.533 32.1032 663.533 29.2667V29.1185C663.456 24.0043 659.288 20.4667 654 20.4667C648.712 20.4667 644.543 24.0035 644.467 29.1178Z" fill="#E90083"/>
</g>
<defs>
<filter id="filter0_d_610_589" x="0.299999" y="0.299999" width="199.4" height="87.4" filterUnits="userSpaceOnUse" color-interpolation-filters="sRGB">
<feFlood flood-opacity="0" result="BackgroundImageFix"/>
<feColorMatrix in="SourceAlpha" type="matrix" values="0 0 0 0 0 0 0 0 0 0 0 0 0 0 0 0 0 0 127 0" result="hardAlpha"/>
<feOffset dy="15"/>
<feGaussianBlur stdDeviation="13.35"/>
<feComposite in2="hardAlpha" operator="out"/>
<feColorMatrix type="matrix" values="0 0 0 0 0.121569 0 0 0 0 0.0627451 0 0 0 0 0.117647 0 0 0 0.21 0"/>
<feBlend mode="normal" in2="BackgroundImageFix" result="effect1_dropShadow_610_589"/>
<feBlend mode="normal" in="SourceGraphic" in2="effect1_dropShadow_610_589" result="shape"/>
</filter>
<filter id="filter1_d_610_589" x="207.1" y="15.1" width="37.8" height="32.6666" filterUnits="userSpaceOnUse" color-interpolation-filters="sRGB">
<feFlood flood-opacity="0" result="BackgroundImageFix"/>
<feColorMatrix in="SourceAlpha" type="matrix" values="0 0 0 0 0 0 0 0 0 0 0 0 0 0 0 0 0 0 127 0" result="hardAlpha"/>
<feOffset dy="4"/>
<feGaussianBlur stdDeviation="3.95"/>
<feComposite in2="hardAlpha" operator="out"/>
<feColorMatrix type="matrix" values="0 0 0 0 0.913725 0 0 0 0 0 0 0 0 0 0.513726 0 0 0 0.75 0"/>
<feBlend mode="normal" in2="BackgroundImageFix" result="effect1_dropShadow_610_589"/>
<feBlend mode="normal" in="SourceGraphic" in2="effect1_dropShadow_610_589" result="shape"/>
</filter>
<filter id="filter2_d_610_589" x="635.1" y="15.1" width="37.8" height="32.6666" filterUnits="userSpaceOnUse" color-interpolation-filters="sRGB">
<feFlood flood-opacity="0" result="BackgroundImageFix"/>
<feColorMatrix in="SourceAlpha" type="matrix" values="0 0 0 0 0 0 0 0 0 0 0 0 0 0 0 0 0 0 127 0" result="hardAlpha"/>
<feOffset dy="4"/>
<feGaussianBlur stdDeviation="3.95"/>
<feComposite in2="hardAlpha" operator="out"/>
<feColorMatrix type="matrix" values="0 0 0 0 0.913725 0 0 0 0 0 0 0 0 0 0.513726 0 0 0 0.75 0"/>
<feBlend mode="normal" in2="BackgroundImageFix" result="effect1_dropShadow_610_589"/>
<feBlend mode="normal" in="SourceGraphic" in2="effect1_dropShadow_610_589" result="shape"/>
</filter>
<linearGradient id="paint0_linear_610_589" x1="27" y1="3.5" x2="27" y2="50.8571" gradientUnits="userSpaceOnUse">
<stop stop-color="white"/>
<stop offset="1" stop-color="#FFD6EA"/>
</linearGradient>
</defs>
</svg>
