<svg width="21" height="20" viewBox="0 0 21 20" fill="none" xmlns="http://www.w3.org/2000/svg">
<path d="M11.38 12.9108C11.7617 13.4197 12.2938 13.7956 12.9009 13.9852C13.5081 14.1749 14.1596 14.1687 14.763 13.9675C15.3665 13.7664 15.8914 13.3805 16.2633 12.8644C16.6352 12.3484 16.8354 11.7284 16.8354 11.0923C16.8354 10.4086 16.6002 9.78423 16.2183 9.27748L16.2292 9.27385L10.1677 2L4.10615 9.27385L4.11706 9.27748C3.71872 9.79881 3.50199 10.4362 3.5 11.0923C3.5 11.7284 3.70014 12.3484 4.07208 12.8644C4.44402 13.3805 4.96889 13.7664 5.57236 13.9675C6.17582 14.1687 6.82728 14.1749 7.43445 13.9852C8.04162 13.7956 8.57372 13.4197 8.95538 12.9108L9.56154 12.1034V14.7292C9.56154 16.5477 6.53077 16.5477 6.53077 16.5477C6.37001 16.5477 6.21583 16.6116 6.10215 16.7252C5.98848 16.8389 5.92462 16.9931 5.92462 17.1538C5.92462 17.3146 5.98848 17.4688 6.10215 17.5825C6.21583 17.6961 6.37001 17.76 6.53077 17.76H13.8046C13.9654 17.76 14.1196 17.6961 14.2332 17.5825C14.3469 17.4688 14.4108 17.3146 14.4108 17.1538C14.4108 16.9931 14.3469 16.8389 14.2332 16.7252C14.1196 16.6116 13.9654 16.5477 13.8046 16.5477C13.8046 16.5477 10.7738 16.5477 10.7738 14.7292V12.1034L11.38 12.9108Z" fill="#E6E3E8"/>
</svg>
