<?xml version="1.0" encoding="UTF-8"?>
<!DOCTYPE svg PUBLIC "-//W3C//DTD SVG 1.1//EN" "http://www.w3.org/Graphics/SVG/1.1/DTD/svg11.dtd">
<!-- Creator: CorelDRAW -->
<svg xmlns="http://www.w3.org/2000/svg" xml:space="preserve" width="210mm" height="297mm" version="1.1" style="shape-rendering:geometricPrecision; text-rendering:geometricPrecision; image-rendering:optimizeQuality; fill-rule:evenodd; clip-rule:evenodd"
viewBox="0 0 21000 29700"
 xmlns:xlink="http://www.w3.org/1999/xlink"
 xmlns:xodm="http://www.corel.com/coreldraw/odm/2003">
 <defs>
  <style type="text/css">
   <![CDATA[
    .fil1 {fill:none}
    .fil0 {fill:url(#id1)}
   ]]>
  </style>
   <clipPath id="id0">
    <path d="M9542.88 18259.39c4.52,-3.93 5.27,-4.72 12.47,-7.93 6.15,-2.75 11.27,-3.87 17.61,-6.18 9.56,-3.49 22.15,-8.75 31.63,-12.57 14.03,-5.65 32.26,-16.5 46.89,-19.24 24,-4.49 55.79,-21.09 78.34,-32.31 20.45,-10.17 41.52,-18.09 63.51,-28.27l121.24 -58.95c80.35,-40.18 161.7,-78.94 238.79,-124.95l451.58 -275.94c107.8,-74.71 211.94,-152.08 317.19,-230.14l152.52 -119.44c8.82,-6.97 15.5,-12.71 24.18,-20.02l195.61 -171.54c9.68,-9.58 15.95,-12.39 25.63,-21.97 90.84,-89.87 187.43,-176.05 271.93,-272.01 14.55,-16.51 31.29,-29.42 45.84,-45.94l129.18 -142.79c28.82,-32.43 58.97,-63.54 85.66,-97.92l82.43 -101.14c137.33,-169.61 259.39,-349.28 380.46,-530.63 73.89,-110.68 136.91,-227.62 205.99,-341.34l63.94 -119.64c22.97,15.38 40.03,40.31 58.6,60.39 28.44,30.75 63.01,57.93 89.98,90.2l86.81 96.76c39,41.66 74.37,85.85 109.93,131.44 20.37,26.1 88.11,112.4 103.42,141.35 -20.1,37.99 -42.02,74.58 -63.54,113.23 -57.93,104.12 -125.78,202.43 -191.41,301.53 -96.99,146.45 -222.65,297.3 -339.15,429.15 -69.38,78.54 -145.12,151.93 -219.25,226.1l-212.83 191.72 -413.18 307.53c-10.35,6.93 -16.9,10.15 -27.26,16.94 -18.87,12.36 -34.6,22.81 -54.07,34.31l-112.17 68.01c-149.26,89.43 -320.23,174.41 -479.71,241 -23.79,9.94 -40.38,17.29 -65.12,26.67l-260.2 96.75c-311.59,98.86 -556.26,151.68 -887.88,193.19 -42.2,5.29 -126.97,14.59 -165.59,14.59zm-384.31 747.9l-24.82 0c-22.13,-0.52 -40.24,-3.41 -66.81,-3.4l-74.66 -3.53c-29.18,-0.34 -49.29,-3.3 -74.96,-3.23l-73.33 -4.86c-25.66,-3.8 -45.81,-3.1 -72.3,-5.89 -457.14,-48.09 -839.73,-132.54 -1272.39,-288.02l-112.93 -43.45c-37.16,-16.78 -74.41,-29.33 -110.93,-45.45l-187.1 -84.86c-131.45,-58.45 -260.26,-128.45 -383.04,-201.7 -144.57,-86.24 -288.99,-175.37 -423.61,-276.7 -16.18,-12.17 -28.44,-20.99 -45.17,-33.02 -65.72,-47.25 -157.33,-118.4 -216.48,-171.06 -48.72,-43.38 -100.34,-83.23 -147.9,-127.48l-100.25 -93.52c-13.13,-13.14 -25.5,-27.08 -39.12,-39.07 -50.97,-44.9 -71.7,-72.29 -115.54,-115.63l-76.51 -79.88c-7.56,-7.52 -13.55,-12.59 -20.05,-20.74 -7.27,-9.1 -8.57,-11.5 -17.33,-20.06l-56.12 -62.86c-8.45,-8.5 -9.64,-12.06 -17.04,-20.36 -12.71,-14.27 -24.24,-26.63 -36.24,-41.96 -11.96,-15.27 -24.94,-27.97 -35.97,-42.21 -11.32,-14.62 -22.53,-28.49 -34.75,-43.44 -46.67,-57.04 -94.67,-115.31 -136.57,-176.2 -11.61,-16.86 -21.51,-29.17 -33.16,-45.03l-63.1 -89.87c-45.03,-59.96 -84.06,-125.3 -124,-188.76l-115.09 -194.28c-9.06,-15.69 -19.42,-32.73 -28.18,-50.01l-41.94 -77.05c-5.08,-9.45 -7.62,-15.29 -12.44,-24.95 -18.05,-36.09 -34.09,-68.16 -52.13,-104.25l-74.49 -156.68c-8.29,-20.06 -15.43,-34.39 -23.77,-54.42 -77.77,-186.66 -127.99,-321.46 -190.6,-513.12l-52.25 -182.32c-32.97,-125.66 -63.36,-247.95 -85.9,-379.84 -7.14,-41.73 -15.83,-87.88 -23.35,-133.03 -14.88,-89.42 -24.8,-184.46 -35.97,-273.39 -3.17,-25.15 -2.75,-47.11 -6.3,-71.89 -3.8,-26.5 -2.42,-45.64 -5.35,-72.84l-7.22 -111.77c-5.68,-41.53 -5.87,-138.18 -5.87,-184.5l0 -152.98c0,-176.16 16.23,-401.85 40.98,-577.75 29.86,-212.21 69.92,-445.52 127.79,-643.91l33.77 -119.21c12.32,-42.89 23.04,-78.67 36.71,-119.67 7.07,-21.18 12.49,-39.2 18.68,-59.51 27.6,-90.49 109.39,-306.06 148.88,-388.25 9.04,-18.81 15.73,-34.86 23.99,-54.2 52.79,-123.55 113.76,-244.61 178.81,-361.73 19.03,-34.28 36.01,-63.89 54.44,-98.54 35.39,-66.57 78.4,-127.61 116.77,-192.6 78.11,-132.3 225.76,-326.91 322.11,-449.58 31.73,-40.4 87.54,-110.79 123.46,-148.51 37.66,-39.54 70.98,-83.24 108.73,-122.45l209.14 -212.4c14.79,-14.79 24.05,-24.67 40.45,-37.74 13.58,-10.84 24.54,-24.93 37.7,-37.1l83.17 -73.2c14.24,-11.97 27.06,-24.83 40.99,-37.21l83.28 -69.7c40.78,-36.36 86.08,-68.24 128.77,-102.39l315.02 -225.52c76.87,-51.28 156.13,-102.26 237.48,-146.67 83.72,-45.71 164.91,-96.1 251.61,-135.94 17.81,-8.18 32.2,-16.11 49.85,-24.94l156.37 -74.81c18.56,-9.36 35.55,-14.71 54.41,-23.78 35.92,-17.26 71.58,-29.5 107.56,-45.42 91.91,-40.64 185.61,-73.67 281.82,-105.73l175.09 -56.08c99.05,-32.25 202.27,-55.32 303.31,-80.84 291.95,-73.74 721.46,-127.81 1024.65,-127.81l231.17 0c270.48,0 574.24,35.58 839.41,88.67l190.67 40.51c20.1,5.06 38.37,10.09 59.83,14.95 84.07,19.05 163.44,40.75 243.15,66.22 20.68,6.61 39.68,11.26 60.37,17.82 18.73,5.95 39.96,13.35 58.62,19.57 113.82,37.92 227.25,78.43 337.57,124.78l471.1 222.4c133.59,66.07 305.35,176.61 432.42,261.1 106.99,71.12 211.05,149.51 312.09,228.44l86.04 70.34c14.7,12.38 26.62,21.2 40.6,34.2 13.81,12.83 29.15,22.4 42.51,35.68 32.65,32.48 68.69,59.91 101.9,91.87 8.38,8.07 12.25,9.26 20.51,16.89l143.24 138.92c0.51,0.48 1.23,1.18 1.73,1.68l87.87 88.9c14.25,14.08 22.78,26.28 37.38,40.81l35.64 39.14c14.68,14.56 23.23,26.45 37.5,40.7 8.89,8.87 10.48,13.46 18.61,22.19 55.77,59.94 107.44,124.12 158.52,188.23l228.23 308.91c10.97,15.44 21.26,28.87 31.67,46.52 10.44,17.69 19.53,30.29 30.87,47.31 51.53,77.28 100.51,157.13 145.87,238.29l96.43 175.54 160.4 339.33c69.79,170.26 110.59,277.13 168.35,450.37 81.09,243.18 134.52,494.62 176.96,747.74 60.3,359.71 75.57,781.18 46.32,1154.1 -14.31,182.48 -28.81,307.19 -58.94,488.39l-52.07 260.69c-23.81,103.98 -47.72,205.05 -80.83,306.72 -6.95,21.34 -11.48,38.49 -17.9,60.3 -57.71,196.14 -134.31,380.76 -214.41,567.49l-74.64 156.53c-76.94,153.87 -156.71,308.39 -251.32,452.39 -11.2,17.04 -19.31,30.62 -30.01,48.18 -38.84,63.7 -83.85,122.45 -125.07,184.3 -82.11,123.22 -179.02,235.56 -271.75,350.37l-183.92 207.03c-13.92,13.79 -25.19,25.29 -39.11,39.08l-175.23 174.93c-8.88,7.43 -11.66,8.42 -20.29,17.1l-61.3 57.69c-8.94,7.49 -11.6,8.33 -20.26,17.13 -9.3,9.45 -12.19,10.73 -21.92,18.87 -7.63,6.39 -11.38,12.01 -19.01,18.39 -29.17,24.44 -56.6,46.36 -84.86,71.52 -88.31,78.64 -253.54,201.06 -353.32,268.81 -109.31,74.22 -221.28,144.82 -334.44,212.88 -179.18,107.76 -377.44,204.93 -570.64,286.06 -112.04,47.04 -224.3,90.85 -339.81,129.34 -158.35,52.75 -312.92,97.62 -484.14,137.97 -168.47,39.71 -342.4,68.58 -530.07,92.06 -223.25,27.94 -446.25,35.17 -681.05,36.41zm-2110.98 -1336.03c66.88,0 212.85,-38.77 278.08,-55.08 29.21,-7.3 62.28,-14.67 92.06,-23.52l437.67 -130.06c31.09,-10.35 54.45,-20.27 85.02,-30.56l81.4 -30.79c29.34,-11.27 55.14,-19.85 84.48,-31.11 111.78,-42.89 212.81,-88.94 320.57,-134.97l116.54 -53.44c13,-6.56 24.54,-12.29 38.52,-19.27 86.53,-43.27 178.55,-86.34 261.29,-136.46 12.28,-7.44 24.7,-14.53 36.74,-21.06 96.53,-52.28 192.38,-111.04 284.18,-171.36l337.94 -233.19c22.15,-16.67 43.42,-31.76 66.54,-49.04 64.88,-48.51 125.51,-100.92 188.87,-151.09l122.96 -104.81c6.86,-5.79 8.19,-5.52 15.16,-12.04l118.98 -108.79c65.18,-57.39 220.53,-206.42 273.8,-270.14l122.18 -132.79c103.27,-115.95 200.74,-236.88 296.9,-359.22 17.24,-21.95 33.5,-40.59 49.59,-62.59 16.69,-22.83 32.12,-43.54 48.43,-67.16 98.78,-143.11 182.59,-253.18 275.07,-408.24 15.07,-25.27 158.07,-261.5 165.51,-293.44 29.98,15.87 67.79,28.58 98.6,44.19l163.16 78.2c169,84.49 326.56,183.99 482.11,289.6l112.84 80.93c27.47,19.29 56.2,38.69 80.72,62.07 7.02,6.69 20.76,18.06 28.05,22.94 -77.14,145.78 -145.62,299.24 -235.24,437.88 -53.06,82.09 -106.07,165.92 -162.53,245.42 -18.26,25.72 -36.17,52.46 -54.35,78.23 -18.87,26.74 -36.76,52.37 -56.85,79.13 -59.03,78.63 -184.17,239.61 -256.79,317.74l-62.85 73.14c-38.59,39.64 -71.22,81.34 -112.23,122.34 -23.49,23.5 -44.49,44.5 -67.99,68l-258.4 248.14c-53.78,47.52 -107.12,97.44 -163.55,142.4 -50.47,40.21 -98.41,78.86 -148.96,119.61 -74.97,60.45 -154.66,115.32 -234.27,170.27 -54.46,37.6 -106.02,74.75 -163.08,108.9 -69.91,41.86 -136.47,90.31 -208.86,127.69 -8.79,4.54 -12.23,7.53 -21.5,12.5l-331.99 174.54c-7.98,3.57 -13.75,7.24 -22.86,11.14 -70.4,30.1 -138.68,66.48 -209.3,96.67 -168.05,71.82 -417.69,167.14 -592.51,216.58 -72.02,20.37 -142.68,38.91 -212.65,59.32 -118.68,34.62 -261.96,65.09 -385.74,87.09 -16.71,2.97 -39.1,-4.81 -55.11,-9.19 -69.92,-19.19 -140.95,-35.83 -210.19,-58.38 -35.8,-11.65 -70.58,-20.31 -103.7,-32.29 -33.73,-12.19 -66.38,-23.21 -101.16,-34.82 -31.4,-10.48 -64.57,-25.29 -95.98,-36.6 -17.15,-6.18 -30.98,-12.67 -48.63,-19.36 -18.83,-7.14 -30.67,-11.71 -48.4,-19.59 -32.9,-14.64 -61.32,-27.04 -94.89,-41.1 -34.03,-14.25 -60.48,-30.14 -92.77,-43.21l-66.52 -32.07c-42.32,-18.91 -270.58,-139.36 -284.11,-157.83zm-557.53 -390.95c-7.04,-10.5 -11.8,-13.65 -22.36,-21.84l-123.04 -108.13c-8.69,-8.59 -14.67,-16.02 -24.08,-23.52 -33.51,-26.73 -62.52,-60.26 -93.08,-90.5 -9.77,-9.67 -16.7,-12.32 -25.67,-21.92l-44.08 -47.7c-38.69,-38.68 -62.74,-69.42 -90.02,-96.96l-211.96 -250.38c-17.7,-22.67 -66.68,-82.89 -79.62,-107.36 16.5,-1.37 28.53,-6.02 42.87,-2.65 6.7,1.58 2,1.33 9.5,0.89 33.53,-1.97 69.93,-10.86 101.21,-14.63 106.87,-12.85 210.47,-34.5 313.59,-56.96 52.41,-11.42 100.87,-23.06 151.59,-35.39 40.3,-9.81 182.09,-43.92 218.49,-56.87 25.32,-9.01 44.35,-15.51 71.66,-23.54 110.65,-32.56 302.25,-101.34 406.63,-147.49l130.71 -56.27c22.69,-9.42 42.13,-19.11 63.22,-28.58 183.94,-82.62 400.62,-199.56 568.34,-312.14 10.48,-7.04 18.67,-11.53 29.27,-18.33 20.01,-12.82 36.87,-24.65 57.08,-38.1l320.14 -233.99 153.29 -125.48c10.36,-8.36 13.86,-12.21 23.46,-20.74 10.16,-9.03 15.17,-11.93 25.41,-22.18l215.97 -202.18c8.76,-8.11 15.16,-15.31 23.76,-23.83l135.97 -142.79c16.11,-16.11 29.2,-30.24 44.03,-47.77l146.42 -176.53c7.87,-9.58 13.18,-17.46 20.71,-26.89 7.3,-9.14 14.03,-17.12 21.33,-26.26 61.9,-77.5 121.82,-158.65 177.03,-241.13 12.66,-18.91 24,-37.22 36.69,-55.09 6.78,-9.54 12.86,-17.08 19.74,-27.86l73.12 -113.86c5.14,-8.82 11.82,-24.87 22.72,-24.87l159.77 0c134.4,0 214.47,4.21 343.68,16.68 173.11,16.71 309.65,37.49 473.64,70.29 51.62,10.32 99.84,19.85 148.17,32.01 27.3,6.87 256.97,64.47 285.56,78.19 -12.7,54.51 -205.15,356.92 -249.53,423.59 -56.67,85.12 -175.73,251.55 -235.83,325.11 -17.6,21.54 -33.28,39.26 -50.28,61.89 -35.72,47.52 -75.98,92.28 -113.2,138.37 -4.88,6.05 -7.34,7.81 -12.63,14.58 -37.41,47.87 -84.17,85.89 -122.83,132.13 -6.3,7.53 -6.35,9.35 -13.69,16.91l-53.34 58.84c-27.13,35.14 -78.75,79.64 -111.59,112.78l-28.95 25.45c-10.44,9.66 -18.65,18.74 -28.85,28.94 -19.53,19.52 -36.57,36.56 -56.1,56.09 -10.11,10.12 -17.19,18.07 -28.04,26.35 -22.72,17.34 -84.5,78.89 -118.99,105.38 -6.85,5.27 -7.85,6.6 -14.45,12.75l-45.89 39.1c-7.05,6.71 -8.06,6.72 -14.95,12.24 -6.62,5.3 -9.35,9.29 -15.68,14.92 -6.79,6.04 -8.42,5.94 -15.21,11.99l-109.45 87.73c-43.97,32.96 -85.02,63.32 -127.26,97.11 -70.14,56.11 -133.87,91.95 -200.11,139.84 -64.97,46.97 -133.59,93.14 -202.15,134.42 -12.41,7.47 -21.22,12.65 -34.4,19.98l-214.3 122.26c-14.33,7.22 -22.28,12.98 -37.35,20.45 -26.32,13.05 -48.52,24.25 -74.79,37.39 -25.11,12.55 -49.3,26.45 -75.1,37.09 -53.26,21.98 -98.74,51.68 -150.56,73.81l-318.1 134.05c-54.97,22.07 -108.36,38.6 -164.19,60.18 -55.51,21.46 -109.16,38.33 -166.73,57.64 -57.86,19.41 -115.03,31.91 -173.38,50.99 -14.78,4.83 -29.01,7.94 -42.49,11.91l-134.21 35.77c-90.66,22.68 -184.18,41.03 -275.9,60.66 -28.84,6.17 -61.32,12.2 -94.05,18.13 -119.41,21.64 -275.82,45.8 -396.31,55.83zm2519.08 -4885.2c185.92,0 504.04,22.82 681.85,49.07 73.51,10.85 142.15,20.91 212.26,32.5 70.77,11.69 135.98,25.52 205.37,39.4 320.09,64.02 633.71,163.1 936.38,284.07 58.3,23.3 113.49,47.72 172.43,72.34l166.89 77.89c29.07,14.54 53.09,26.55 82.67,39.7 28.27,12.57 52.63,28.13 80.49,41.9 15.79,7.8 25.02,13.65 39.66,21.54 15.07,8.11 26.33,13.51 39.83,21.36 13.31,7.73 26.26,12.89 40,21.2 13.44,8.12 24.99,14.21 39.09,22.09 190.73,106.62 492.99,300.56 660.81,437.26 23.23,18.91 44.86,36.13 68.58,53.8 51.74,38.55 101.49,82.57 151.1,124.26l32.44 28.76c7.7,6.15 9.09,6.38 16.67,13.92 11.59,11.53 20.34,17.07 32.23,28.97l159.83 146.13c47.36,47.43 142.64,137.14 183.55,183.6l159.98 176.59c98.37,116.31 195.33,233.45 286.98,355.54 30.48,40.61 25.74,29.54 14.27,87.12 -40.04,201 -84.42,392.08 -148.86,585.46l-47.59 135.98c-4.93,13.7 -11.25,32.09 -17.43,43.77 -21.44,-14.36 -41.6,-49.17 -60.34,-68.85l-62.05 -70.54c-19.27,-25.25 -122.23,-126.27 -149.06,-160.3l-67.66 -64.92c-15,-14.99 -27.51,-27.5 -42.5,-42.49 -8.1,-8.11 -13.67,-14.76 -22.44,-21.76 -10.52,-8.39 -13.77,-10.95 -23.46,-20.73 -44.07,-44.47 -91.71,-84.8 -137.63,-127.53 -52.9,-49.21 -111.65,-92.94 -169.64,-136.33 -76,-56.86 -146.28,-119.21 -225.96,-171.79l-157.69 -107.47c-49.71,-33.01 -164.3,-105.58 -219.82,-133.74 -58.55,-29.69 -113.45,-63.45 -172.3,-92.87 -173.83,-86.91 -306.19,-144.21 -485.49,-218.22 -21.38,-8.83 -39.91,-17.62 -62.79,-25.6 -287.08,-100.03 -520.19,-173.38 -825.98,-227.89 -170.3,-30.36 -370.96,-61.23 -548.7,-70.02 -54.39,-2.69 -113.68,-10.43 -166.63,-10.16l-84.89 -3.49c-58.95,-0.08 -117.94,0.12 -176.9,0.12 -2.49,-10.73 -9.83,-24.47 -14.56,-36.44l-48.86 -114.31c-22.93,-51.53 -43.1,-100.25 -64.3,-153.27 -26.46,-66.15 -65.81,-173.66 -85.01,-241.35 -24.27,-85.54 -54.07,-164.3 -72.55,-253.81 -6.37,-30.85 -14.1,-56.36 -21.35,-87.44 -27.98,-120 -53.39,-240.28 -70.54,-364.61 -3.85,-27.89 -10.38,-69.27 -10.38,-98.41zm-3691.94 435.15l0 132.58c0,82.22 5.74,155.67 6.66,234.71l11.27 168.91c1.77,13.25 4.49,41.27 5.61,55.58 28.6,367.42 94.86,677.36 181.81,1025.04l82.34 278.02c5.52,16.42 9.5,32.05 14.42,46.77l46.61 133.57c6.19,15.99 10.86,29.04 16.35,44.85l137.98 344.76 133.8 287.73c7.48,14.95 12.96,25.83 20.4,40.81 7.81,15.76 13.99,24.42 21.58,39.61 10.41,20.85 141.32,266.51 159.48,292.66 7.11,10.22 8.63,7.92 11.58,19.01 -16.67,0 -25.66,3.96 -40.51,7.08 -133.45,28 -243.25,43.63 -378.65,63.29 -29.52,4.29 -60.98,6.79 -88.32,10.27l-182.63 14.55c-3.86,-16.57 -16.75,-33.42 -24.9,-49.89 -5.33,-10.76 -8.1,-14.02 -13.58,-23.81 -5.57,-9.95 -8.18,-17.04 -13.63,-27.17l-150.71 -315.04c-31.14,-69.68 -82.31,-202.47 -106.97,-277.18 -34.14,-103.42 -63.2,-189.6 -91.38,-296.17 -35.7,-134.93 -57.7,-239.66 -83.53,-382.21 -17.57,-96.95 -24.4,-177.35 -37.38,-271.99 -7.94,-57.98 -17.89,-217.33 -21.87,-290.89 -5.64,-104.53 0.53,-199.17 0,-302.6l7.01 -145.97c24.6,-313.84 59.09,-505.84 132.39,-799.09 21.79,-87.16 45.63,-155.81 70.17,-239.2l81.83 -227.52c38.62,-96.33 73.07,-180.14 117.75,-273.21 4.71,-9.82 6.55,-16.3 11.24,-26.15 2.65,-5.59 3.89,-8.28 6.75,-13.65 2.37,-4.47 1.42,-2.98 3.69,-6.51 4.06,-6.32 1.34,-2.42 4.34,-5.86l-27.42 264.94c-4.58,60.2 -11.65,121.33 -13.28,183.91l-10.3 285.46zm51 -741.11c0.33,-0.34 1.01,0.54 1.01,1.01l-1.01 -1.01zm3603.55 -197.17l3.32 -224.46c-0.27,-64.49 11.6,-197.64 17.36,-268.2 3.4,-41.5 12.01,-86.68 16.71,-129.47 4.44,-40.39 10.69,-85.08 17.5,-125.29 16.98,-100.38 35.4,-201.93 60.01,-300.34 4.39,-17.56 12.89,-43.77 14.28,-60.51 55.64,0 119.49,-1.25 173.56,3.22 19.36,1.61 41.44,-0.9 61.03,0.16l227.57 13.81c168.52,13.16 364.73,36.4 529.64,68.68 131.82,25.79 265.66,49.52 395.21,84.13 31.96,8.54 61.77,16.28 94.52,24.46 30.83,7.7 62.55,17.27 92.88,26.11l273.69 86.67c16.36,5.41 28.16,10.54 42.46,15.33 134.34,44.89 302.4,111.78 429.09,172.64 15.26,7.32 26.89,11.65 41.91,19.28l120.15 56.63c79.11,39.94 159.67,78.67 235.99,124.36 100.87,60.38 204.8,114.83 302.49,180.25 107.99,72.31 215.12,143.8 319.13,221.4 68.36,51 138.01,102.01 202.29,158.07l285.81 251.32c33.67,26.86 62.42,60.16 93.08,90.5 10.85,10.74 19.32,15.59 30.73,27.06 11.58,11.67 16.77,20.47 28.81,32.38l274.03 297.1c18.4,22.63 28.47,83.98 36.18,113.4l47.66 190.32c16.05,65.72 28.5,133.9 39.78,201.58 14.6,87.52 31.17,174.71 38.08,261.09 1.57,19.56 2.08,36.5 4.63,56.56 13.28,104.15 22.85,339.75 22.85,459.89 -18.16,-12.16 -53.41,-60.58 -72.2,-80.78 -5,-5.38 -8.74,-8.08 -13.61,-13.59 -5.97,-6.76 -5.98,-8.46 -11.95,-15.24l-86.82 -93.36c-4.59,-5.49 -8.35,-8.72 -13.44,-13.76 -17.9,-17.74 -33.17,-33.16 -51,-50.99l-50.99 -54.39c-22.19,-22.11 -183.94,-179.59 -214.76,-203.39l-81 -71.97c-9.9,-9.43 -18.55,-16.18 -28.95,-25.45l-40.58 -34.21c-62.22,-52.63 -123.22,-105.63 -188.97,-154.4l-57.6 -44.38c-19.72,-16.29 -39.52,-30.14 -59.92,-45.47l-210.55 -149.8c-84.26,-56.41 -167.66,-111.85 -254.58,-163.56l-164.93 -96.84c-43.44,-26.12 -90.31,-47.39 -133.9,-73.48 -50.09,-29.99 -118.35,-61.91 -172.54,-89.23 -13.18,-6.64 -21.64,-9.58 -35.15,-15.84l-284.72 -130.03c-26.43,-11.11 -48.39,-20.05 -74.83,-30.56 -13.99,-5.56 -22.86,-9.98 -35.88,-15.11l-268.21 -98.95c-24.34,-8.13 -50.38,-19.03 -75.91,-26.08 -28.79,-7.95 -51.48,-16.38 -79.58,-25.8 -161.55,-54.19 -327.44,-90.81 -492.85,-132.67 -78.41,-19.85 -177.46,-38.32 -257.8,-51.57l-364.23 -53.92c-80.14,-11.09 -158.09,-13.98 -238.94,-22.82l-194.16 -13.22c-17.59,-0.02 -36.24,1.23 -53.07,-1.31 -32.02,-4.85 -69.63,-2.04 -103.43,-1.97 -36.26,0.09 -63.29,-3.4 -101.98,-3.4 -0.35,-15.37 -3.4,-13.51 -3.4,-30.59zm3831.32 -322.97zm0 0zm0 0c-14.56,-9.75 -28.96,-20.08 -43.13,-31.65 -14.77,-12.06 -27.41,-21.2 -42.34,-32.46 -82.53,-62.29 -272.67,-195.47 -356.31,-245.41l-138.47 -85.9c-16.79,-10.02 -29.77,-18.14 -46.7,-28.09 -9.41,-5.52 -14.56,-7.92 -23.85,-13.55l-316.94 -172.59c-17.94,-8.97 -31.96,-15.92 -49.86,-24.94 -17.92,-9.04 -33.05,-14.77 -51,-23.79 -197.21,-99.15 -497.95,-216.83 -696.21,-282.87 -154.34,-51.41 -308.25,-95.25 -466.65,-135.07l-247.25 -55.32c-84.78,-14.62 -166.08,-32.97 -253.98,-45.18l-266.34 -36.22c-65.9,-7.32 -214.77,-23.86 -274.82,-24.35 -17.73,-0.14 -18.7,-2.67 -33.92,-3.47 -12.28,-0.64 -24.7,0.89 -36.92,-0.48l-143.35 -6.22c-25.9,0.1 -45.08,-3.48 -74.71,-3.48 6.42,-12.15 11.36,-28.58 16.5,-41.29 30.95,-76.47 43.05,-119.82 82.14,-206.82l111.47 -235.29c7.99,-13.12 12.59,-23.56 19.87,-37.92l62.38 -114.4c54.01,0 240.27,21.73 290.43,29.12 97.65,14.39 184.28,28.22 276.45,46.52 253.68,50.34 505.83,127.49 742.93,222.54l169.01 72.37c10.07,5.14 16.5,7.63 28.18,12.62l292.82 149.11c147.21,87.31 279.54,162.62 417.64,265.68l294.83 232.11c8.74,6.7 11.36,10.51 19.58,17.81l44.23 37.37c7.34,7.26 12.7,13.7 20.35,20.43l123.99 117.38c8.94,8.84 13.72,10.53 22.28,18.52 8.98,8.4 10.37,13.41 18.54,22.25 32.33,34.96 81.41,79.68 119.01,122.37 98.78,112.18 164.08,188.48 257.58,310.15l67.47 92.3c12.26,16.21 21.1,31.54 33.52,48.07 8.16,10.87 28.39,38.2 31.55,50.04zm-6013.85 628.93c0,691.48 107.09,1322.63 317.44,1953.47 42.87,128.58 84.14,234.47 134.7,361.65 11.64,29.28 24.52,55.81 36.43,85.95l287.19 583.1c7.7,12.67 14.66,25.84 21.97,39.22 15.97,29.23 65.52,105.61 69.16,121.22l-265.34 163c-91.77,52.84 -154.15,84.35 -250.22,130.54 -12.21,5.87 -20.79,8.54 -32.93,14.66 -11.9,6 -19.68,10.18 -31.66,15.94 -94.1,45.16 -364.52,157.29 -443.12,175.59l-208.03 -366.49c-22.21,-36.47 -91.25,-183.74 -114.98,-231.78 -61.68,-124.82 -158.89,-367.84 -201.84,-491.68 -136.86,-394.68 -210.4,-691.74 -271.7,-1111.93 -15,-102.9 -25.08,-208.32 -33.15,-313.6l-16.8 -329.96 7.3 -427.85c7.24,-64.59 10.5,-170.05 18.42,-226.35l26.28 -218.49c13.15,-100.38 32.89,-213.19 53.11,-314.05 6.98,-34.82 13.34,-66.83 21.35,-101.03 56.43,-240.97 103.53,-426.28 187.44,-665.85 10.08,-28.75 91.18,-101.96 117,-127.77 38.66,-38.67 116.54,-115.34 157.74,-148.23l48.09 -43.69c143.13,-120.35 312.78,-256.37 470.87,-355.23 60.47,-37.82 127.23,-81.98 189.88,-116.09 14.3,-7.78 24.99,-15.45 38.56,-22.63l-69.21 216.35c-22.29,75.08 -44.3,147.79 -64.1,224.87 -42.92,167.03 -100.51,420 -124.49,592.82 -9.99,71.94 -28.58,180.5 -34.66,250.91 -3.83,44.33 -9.95,86.77 -13.8,132.38 -14.92,177 -26.9,357.37 -26.9,551.03zm1713.39 -360.36l4.32 209.85c2.82,20.57 0.29,48.7 3.41,71.39l9.29 133.48c2.89,112.84 43.14,382.17 69.38,511.96 8.48,41.94 17.26,82.49 24.91,121.26 42.88,217.2 121.18,464.7 198.54,671.76l40.83 105.35c13.71,34.35 27.96,68.17 42.19,103.99l88.45 200.54c3.46,18.25 -98.95,162.7 -110.09,179.41 -19.54,29.31 -38.73,56.15 -58.49,84.29 -9.58,13.64 -20.51,27.43 -30.58,40.82 -52.95,70.36 -175.33,228.85 -226.92,283.02l-50.84 57.94c-47.21,56.15 -187.52,197.52 -232.98,239.56l-37.44 33.96c-48.46,48.63 -102.09,93.44 -155.98,136.38 -11.03,8.79 -30.55,27.52 -43.74,31.04 -5.03,-21.55 -100.93,-185.95 -115.44,-210.92l-56.82 -109.77c-6.6,-13.3 -11.95,-23.96 -18.12,-36.26 -12.56,-25.02 -23.3,-49.99 -36.27,-75.93 -12.56,-25.11 -23.8,-48.64 -35.07,-73.71l-67.56 -153.41c-36.59,-91.78 -76.02,-184.15 -109.71,-277.85l-42.47 -124.1c-5.11,-15.32 -9.91,-27.35 -14.42,-39.97 -24.8,-69.26 -43.27,-140.61 -63.88,-211.5 -51.77,-178.1 -93.23,-355.57 -124.49,-538.41l-16.56 -95.63c-17.31,-102.33 -59.82,-422.19 -60.61,-544.52 -0.13,-20.31 -3.65,-30.38 -3.43,-54.36 0.2,-22.59 -3.55,-29.23 -3.58,-50.82l-3.28 -353.67c0,-46.28 3.52,-82.35 3.32,-125.86 -0.28,-60.86 15.33,-231.68 20.73,-302.23 7.29,-95.2 25.48,-197.34 36.53,-289.83 17.86,-149.49 52.47,-291.83 83.05,-437.09 14.47,-68.76 34.77,-142.59 52.85,-208.92 30.15,-110.65 66.31,-241.56 106.57,-348.97l125.39 -330.15c13.3,-30.34 27.2,-60.92 39.73,-92.86 14.92,-38.02 15.69,-31.86 77.04,-52.14 34.24,-11.33 61.64,-21.63 96.02,-33.16 33.89,-11.37 64.75,-19.14 98.6,-30.59 139.02,-47.03 373.29,-96.77 529.67,-123.05 85.3,-14.34 261.84,-41.49 348.76,-42.2l122.33 -10.25c-0.96,11.51 -18.58,47.48 -23.79,57.81 -66.79,132.29 -122.95,272.62 -172.96,411.76 -60.93,169.51 -113.51,332.86 -157.5,508.82 -44.14,176.56 -81.5,364.23 -107.1,559.22l-35.01 379.74c-0.71,13.19 0.74,27.63 0.03,40.82l-6.81 203.96z"/>
   </clipPath>
  <linearGradient id="id1" gradientUnits="userSpaceOnUse" x1="9249.46" y1="18999.28" x2="9249.47" y2="8944.54">
   <stop offset="0" style="stop-opacity:1; stop-color:#E72F84"/>
   <stop offset="1" style="stop-opacity:1; stop-color:#F06468"/>
  </linearGradient>
 </defs>
 <g id="Camada_x0020_1">
  <metadata id="CorelCorpID_0Corel-Layer"/>
  <g>
  </g>
  <g style="clip-path:url(#id0)">
   <g id="_105553216718880">
    <polygon class="fil0" points="4092.55,18999.28 4092.55,8944.54 14406.38,8944.54 14406.38,18999.28 "/>
   </g>
  </g>
  <path class="fil1" d="M9542.88 18259.39c4.52,-3.93 5.27,-4.72 12.47,-7.93 6.15,-2.75 11.27,-3.87 17.61,-6.18 9.56,-3.49 22.15,-8.75 31.63,-12.57 14.03,-5.65 32.26,-16.5 46.89,-19.24 24,-4.49 55.79,-21.09 78.34,-32.31 20.45,-10.17 41.52,-18.09 63.51,-28.27l121.24 -58.95c80.35,-40.18 161.7,-78.94 238.79,-124.95l451.58 -275.94c107.8,-74.71 211.94,-152.08 317.19,-230.14l152.52 -119.44c8.82,-6.97 15.5,-12.71 24.18,-20.02l195.61 -171.54c9.68,-9.58 15.95,-12.39 25.63,-21.97 90.84,-89.87 187.43,-176.05 271.93,-272.01 14.55,-16.51 31.29,-29.42 45.84,-45.94l129.18 -142.79c28.82,-32.43 58.97,-63.54 85.66,-97.92l82.43 -101.14c137.33,-169.61 259.39,-349.28 380.46,-530.63 73.89,-110.68 136.91,-227.62 205.99,-341.34l63.94 -119.64c22.97,15.38 40.03,40.31 58.6,60.39 28.44,30.75 63.01,57.93 89.98,90.2l86.81 96.76c39,41.66 74.37,85.85 109.93,131.44 20.37,26.1 88.11,112.4 103.42,141.35 -20.1,37.99 -42.02,74.58 -63.54,113.23 -57.93,104.12 -125.78,202.43 -191.41,301.53 -96.99,146.45 -222.65,297.3 -339.15,429.15 -69.38,78.54 -145.12,151.93 -219.25,226.1l-212.83 191.72 -413.18 307.53c-10.35,6.93 -16.9,10.15 -27.26,16.94 -18.87,12.36 -34.6,22.81 -54.07,34.31l-112.17 68.01c-149.26,89.43 -320.23,174.41 -479.71,241 -23.79,9.94 -40.38,17.29 -65.12,26.67l-260.2 96.75c-311.59,98.86 -556.26,151.68 -887.88,193.19 -42.2,5.29 -126.97,14.59 -165.59,14.59zm-384.31 747.9l-24.82 0c-22.13,-0.52 -40.24,-3.41 -66.81,-3.4l-74.66 -3.53c-29.18,-0.34 -49.29,-3.3 -74.96,-3.23l-73.33 -4.86c-25.66,-3.8 -45.81,-3.1 -72.3,-5.89 -457.14,-48.09 -839.73,-132.54 -1272.39,-288.02l-112.93 -43.45c-37.16,-16.78 -74.41,-29.33 -110.93,-45.45l-187.1 -84.86c-131.45,-58.45 -260.26,-128.45 -383.04,-201.7 -144.57,-86.24 -288.99,-175.37 -423.61,-276.7 -16.18,-12.17 -28.44,-20.99 -45.17,-33.02 -65.72,-47.25 -157.33,-118.4 -216.48,-171.06 -48.72,-43.38 -100.34,-83.23 -147.9,-127.48l-100.25 -93.52c-13.13,-13.14 -25.5,-27.08 -39.12,-39.07 -50.97,-44.9 -71.7,-72.29 -115.54,-115.63l-76.51 -79.88c-7.56,-7.52 -13.55,-12.59 -20.05,-20.74 -7.27,-9.1 -8.57,-11.5 -17.33,-20.06l-56.12 -62.86c-8.45,-8.5 -9.64,-12.06 -17.04,-20.36 -12.71,-14.27 -24.24,-26.63 -36.24,-41.96 -11.96,-15.27 -24.94,-27.97 -35.97,-42.21 -11.32,-14.62 -22.53,-28.49 -34.75,-43.44 -46.67,-57.04 -94.67,-115.31 -136.57,-176.2 -11.61,-16.86 -21.51,-29.17 -33.16,-45.03l-63.1 -89.87c-45.03,-59.96 -84.06,-125.3 -124,-188.76l-115.09 -194.28c-9.06,-15.69 -19.42,-32.73 -28.18,-50.01l-41.94 -77.05c-5.08,-9.45 -7.62,-15.29 -12.44,-24.95 -18.05,-36.09 -34.09,-68.16 -52.13,-104.25l-74.49 -156.68c-8.29,-20.06 -15.43,-34.39 -23.77,-54.42 -77.77,-186.66 -127.99,-321.46 -190.6,-513.12l-52.25 -182.32c-32.97,-125.66 -63.36,-247.95 -85.9,-379.84 -7.14,-41.73 -15.83,-87.88 -23.35,-133.03 -14.88,-89.42 -24.8,-184.46 -35.97,-273.39 -3.17,-25.15 -2.75,-47.11 -6.3,-71.89 -3.8,-26.5 -2.42,-45.64 -5.35,-72.84l-7.22 -111.77c-5.68,-41.53 -5.87,-138.18 -5.87,-184.5l0 -152.98c0,-176.16 16.23,-401.85 40.98,-577.75 29.86,-212.21 69.92,-445.52 127.79,-643.91l33.77 -119.21c12.32,-42.89 23.04,-78.67 36.71,-119.67 7.07,-21.18 12.49,-39.2 18.68,-59.51 27.6,-90.49 109.39,-306.06 148.88,-388.25 9.04,-18.81 15.73,-34.86 23.99,-54.2 52.79,-123.55 113.76,-244.61 178.81,-361.73 19.03,-34.28 36.01,-63.89 54.44,-98.54 35.39,-66.57 78.4,-127.61 116.77,-192.6 78.11,-132.3 225.76,-326.91 322.11,-449.58 31.73,-40.4 87.54,-110.79 123.46,-148.51 37.66,-39.54 70.98,-83.24 108.73,-122.45l209.14 -212.4c14.79,-14.79 24.05,-24.67 40.45,-37.74 13.58,-10.84 24.54,-24.93 37.7,-37.1l83.17 -73.2c14.24,-11.97 27.06,-24.83 40.99,-37.21l83.28 -69.7c40.78,-36.36 86.08,-68.24 128.77,-102.39l315.02 -225.52c76.87,-51.28 156.13,-102.26 237.48,-146.67 83.72,-45.71 164.91,-96.1 251.61,-135.94 17.81,-8.18 32.2,-16.11 49.85,-24.94l156.37 -74.81c18.56,-9.36 35.55,-14.71 54.41,-23.78 35.92,-17.26 71.58,-29.5 107.56,-45.42 91.91,-40.64 185.61,-73.67 281.82,-105.73l175.09 -56.08c99.05,-32.25 202.27,-55.32 303.31,-80.84 291.95,-73.74 721.46,-127.81 1024.65,-127.81l231.17 0c270.48,0 574.24,35.58 839.41,88.67l190.67 40.51c20.1,5.06 38.37,10.09 59.83,14.95 84.07,19.05 163.44,40.75 243.15,66.22 20.68,6.61 39.68,11.26 60.37,17.82 18.73,5.95 39.96,13.35 58.62,19.57 113.82,37.92 227.25,78.43 337.57,124.78l471.1 222.4c133.59,66.07 305.35,176.61 432.42,261.1 106.99,71.12 211.05,149.51 312.09,228.44l86.04 70.34c14.7,12.38 26.62,21.2 40.6,34.2 13.81,12.83 29.15,22.4 42.51,35.68 32.65,32.48 68.69,59.91 101.9,91.87 8.38,8.07 12.25,9.26 20.51,16.89l143.24 138.92c0.51,0.48 1.23,1.18 1.73,1.68l87.87 88.9c14.25,14.08 22.78,26.28 37.38,40.81l35.64 39.14c14.68,14.56 23.23,26.45 37.5,40.7 8.89,8.87 10.48,13.46 18.61,22.19 55.77,59.94 107.44,124.12 158.52,188.23l228.23 308.91c10.97,15.44 21.26,28.87 31.67,46.52 10.44,17.69 19.53,30.29 30.87,47.31 51.53,77.28 100.51,157.13 145.87,238.29l96.43 175.54 160.4 339.33c69.79,170.26 110.59,277.13 168.35,450.37 81.09,243.18 134.52,494.62 176.96,747.74 60.3,359.71 75.57,781.18 46.32,1154.1 -14.31,182.48 -28.81,307.19 -58.94,488.39l-52.07 260.69c-23.81,103.98 -47.72,205.05 -80.83,306.72 -6.95,21.34 -11.48,38.49 -17.9,60.3 -57.71,196.14 -134.31,380.76 -214.41,567.49l-74.64 156.53c-76.94,153.87 -156.71,308.39 -251.32,452.39 -11.2,17.04 -19.31,30.62 -30.01,48.18 -38.84,63.7 -83.85,122.45 -125.07,184.3 -82.11,123.22 -179.02,235.56 -271.75,350.37l-183.92 207.03c-13.92,13.79 -25.19,25.29 -39.11,39.08l-175.23 174.93c-8.88,7.43 -11.66,8.42 -20.29,17.1l-61.3 57.69c-8.94,7.49 -11.6,8.33 -20.26,17.13 -9.3,9.45 -12.19,10.73 -21.92,18.87 -7.63,6.39 -11.38,12.01 -19.01,18.39 -29.17,24.44 -56.6,46.36 -84.86,71.52 -88.31,78.64 -253.54,201.06 -353.32,268.81 -109.31,74.22 -221.28,144.82 -334.44,212.88 -179.18,107.76 -377.44,204.93 -570.64,286.06 -112.04,47.04 -224.3,90.85 -339.81,129.34 -158.35,52.75 -312.92,97.62 -484.14,137.97 -168.47,39.71 -342.4,68.58 -530.07,92.06 -223.25,27.94 -446.25,35.17 -681.05,36.41zm-2110.98 -1336.03c66.88,0 212.85,-38.77 278.08,-55.08 29.21,-7.3 62.28,-14.67 92.06,-23.52l437.67 -130.06c31.09,-10.35 54.45,-20.27 85.02,-30.56l81.4 -30.79c29.34,-11.27 55.14,-19.85 84.48,-31.11 111.78,-42.89 212.81,-88.94 320.57,-134.97l116.54 -53.44c13,-6.56 24.54,-12.29 38.52,-19.27 86.53,-43.27 178.55,-86.34 261.29,-136.46 12.28,-7.44 24.7,-14.53 36.74,-21.06 96.53,-52.28 192.38,-111.04 284.18,-171.36l337.94 -233.19c22.15,-16.67 43.42,-31.76 66.54,-49.04 64.88,-48.51 125.51,-100.92 188.87,-151.09l122.96 -104.81c6.86,-5.79 8.19,-5.52 15.16,-12.04l118.98 -108.79c65.18,-57.39 220.53,-206.42 273.8,-270.14l122.18 -132.79c103.27,-115.95 200.74,-236.88 296.9,-359.22 17.24,-21.95 33.5,-40.59 49.59,-62.59 16.69,-22.83 32.12,-43.54 48.43,-67.16 98.78,-143.11 182.59,-253.18 275.07,-408.24 15.07,-25.27 158.07,-261.5 165.51,-293.44 29.98,15.87 67.79,28.58 98.6,44.19l163.16 78.2c169,84.49 326.56,183.99 482.11,289.6l112.84 80.93c27.47,19.29 56.2,38.69 80.72,62.07 7.02,6.69 20.76,18.06 28.05,22.94 -77.14,145.78 -145.62,299.24 -235.24,437.88 -53.06,82.09 -106.07,165.92 -162.53,245.42 -18.26,25.72 -36.17,52.46 -54.35,78.23 -18.87,26.74 -36.76,52.37 -56.85,79.13 -59.03,78.63 -184.17,239.61 -256.79,317.74l-62.85 73.14c-38.59,39.64 -71.22,81.34 -112.23,122.34 -23.49,23.5 -44.49,44.5 -67.99,68l-258.4 248.14c-53.78,47.52 -107.12,97.44 -163.55,142.4 -50.47,40.21 -98.41,78.86 -148.96,119.61 -74.97,60.45 -154.66,115.32 -234.27,170.27 -54.46,37.6 -106.02,74.75 -163.08,108.9 -69.91,41.86 -136.47,90.31 -208.86,127.69 -8.79,4.54 -12.23,7.53 -21.5,12.5l-331.99 174.54c-7.98,3.57 -13.75,7.24 -22.86,11.14 -70.4,30.1 -138.68,66.48 -209.3,96.67 -168.05,71.82 -417.69,167.14 -592.51,216.58 -72.02,20.37 -142.68,38.91 -212.65,59.32 -118.68,34.62 -261.96,65.09 -385.74,87.09 -16.71,2.97 -39.1,-4.81 -55.11,-9.19 -69.92,-19.19 -140.95,-35.83 -210.19,-58.38 -35.8,-11.65 -70.58,-20.31 -103.7,-32.29 -33.73,-12.19 -66.38,-23.21 -101.16,-34.82 -31.4,-10.48 -64.57,-25.29 -95.98,-36.6 -17.15,-6.18 -30.98,-12.67 -48.63,-19.36 -18.83,-7.14 -30.67,-11.71 -48.4,-19.59 -32.9,-14.64 -61.32,-27.04 -94.89,-41.1 -34.03,-14.25 -60.48,-30.14 -92.77,-43.21l-66.52 -32.07c-42.32,-18.91 -270.58,-139.36 -284.11,-157.83zm-557.53 -390.95c-7.04,-10.5 -11.8,-13.65 -22.36,-21.84l-123.04 -108.13c-8.69,-8.59 -14.67,-16.02 -24.08,-23.52 -33.51,-26.73 -62.52,-60.26 -93.08,-90.5 -9.77,-9.67 -16.7,-12.32 -25.67,-21.92l-44.08 -47.7c-38.69,-38.68 -62.74,-69.42 -90.02,-96.96l-211.96 -250.38c-17.7,-22.67 -66.68,-82.89 -79.62,-107.36 16.5,-1.37 28.53,-6.02 42.87,-2.65 6.7,1.58 2,1.33 9.5,0.89 33.53,-1.97 69.93,-10.86 101.21,-14.63 106.87,-12.85 210.47,-34.5 313.59,-56.96 52.41,-11.42 100.87,-23.06 151.59,-35.39 40.3,-9.81 182.09,-43.92 218.49,-56.87 25.32,-9.01 44.35,-15.51 71.66,-23.54 110.65,-32.56 302.25,-101.34 406.63,-147.49l130.71 -56.27c22.69,-9.42 42.13,-19.11 63.22,-28.58 183.94,-82.62 400.62,-199.56 568.34,-312.14 10.48,-7.04 18.67,-11.53 29.27,-18.33 20.01,-12.82 36.87,-24.65 57.08,-38.1l320.14 -233.99 153.29 -125.48c10.36,-8.36 13.86,-12.21 23.46,-20.74 10.16,-9.03 15.17,-11.93 25.41,-22.18l215.97 -202.18c8.76,-8.11 15.16,-15.31 23.76,-23.83l135.97 -142.79c16.11,-16.11 29.2,-30.24 44.03,-47.77l146.42 -176.53c7.87,-9.58 13.18,-17.46 20.71,-26.89 7.3,-9.14 14.03,-17.12 21.33,-26.26 61.9,-77.5 121.82,-158.65 177.03,-241.13 12.66,-18.91 24,-37.22 36.69,-55.09 6.78,-9.54 12.86,-17.08 19.74,-27.86l73.12 -113.86c5.14,-8.82 11.82,-24.87 22.72,-24.87l159.77 0c134.4,0 214.47,4.21 343.68,16.68 173.11,16.71 309.65,37.49 473.64,70.29 51.62,10.32 99.84,19.85 148.17,32.01 27.3,6.87 256.97,64.47 285.56,78.19 -12.7,54.51 -205.15,356.92 -249.53,423.59 -56.67,85.12 -175.73,251.55 -235.83,325.11 -17.6,21.54 -33.28,39.26 -50.28,61.89 -35.72,47.52 -75.98,92.28 -113.2,138.37 -4.88,6.05 -7.34,7.81 -12.63,14.58 -37.41,47.87 -84.17,85.89 -122.83,132.13 -6.3,7.53 -6.35,9.35 -13.69,16.91l-53.34 58.84c-27.13,35.14 -78.75,79.64 -111.59,112.78l-28.95 25.45c-10.44,9.66 -18.65,18.74 -28.85,28.94 -19.53,19.52 -36.57,36.56 -56.1,56.09 -10.11,10.12 -17.19,18.07 -28.04,26.35 -22.72,17.34 -84.5,78.89 -118.99,105.38 -6.85,5.27 -7.85,6.6 -14.45,12.75l-45.89 39.1c-7.05,6.71 -8.06,6.72 -14.95,12.24 -6.62,5.3 -9.35,9.29 -15.68,14.92 -6.79,6.04 -8.42,5.94 -15.21,11.99l-109.45 87.73c-43.97,32.96 -85.02,63.32 -127.26,97.11 -70.14,56.11 -133.87,91.95 -200.11,139.84 -64.97,46.97 -133.59,93.14 -202.15,134.42 -12.41,7.47 -21.22,12.65 -34.4,19.98l-214.3 122.26c-14.33,7.22 -22.28,12.98 -37.35,20.45 -26.32,13.05 -48.52,24.25 -74.79,37.39 -25.11,12.55 -49.3,26.45 -75.1,37.09 -53.26,21.98 -98.74,51.68 -150.56,73.81l-318.1 134.05c-54.97,22.07 -108.36,38.6 -164.19,60.18 -55.51,21.46 -109.16,38.33 -166.73,57.64 -57.86,19.41 -115.03,31.91 -173.38,50.99 -14.78,4.83 -29.01,7.94 -42.49,11.91l-134.21 35.77c-90.66,22.68 -184.18,41.03 -275.9,60.66 -28.84,6.17 -61.32,12.2 -94.05,18.13 -119.41,21.64 -275.82,45.8 -396.31,55.83zm2519.08 -4885.2c185.92,0 504.04,22.82 681.85,49.07 73.51,10.85 142.15,20.91 212.26,32.5 70.77,11.69 135.98,25.52 205.37,39.4 320.09,64.02 633.71,163.1 936.38,284.07 58.3,23.3 113.49,47.72 172.43,72.34l166.89 77.89c29.07,14.54 53.09,26.55 82.67,39.7 28.27,12.57 52.63,28.13 80.49,41.9 15.79,7.8 25.02,13.65 39.66,21.54 15.07,8.11 26.33,13.51 39.83,21.36 13.31,7.73 26.26,12.89 40,21.2 13.44,8.12 24.99,14.21 39.09,22.09 190.73,106.62 492.99,300.56 660.81,437.26 23.23,18.91 44.86,36.13 68.58,53.8 51.74,38.55 101.49,82.57 151.1,124.26l32.44 28.76c7.7,6.15 9.09,6.38 16.67,13.92 11.59,11.53 20.34,17.07 32.23,28.97l159.83 146.13c47.36,47.43 142.64,137.14 183.55,183.6l159.98 176.59c98.37,116.31 195.33,233.45 286.98,355.54 30.48,40.61 25.74,29.54 14.27,87.12 -40.04,201 -84.42,392.08 -148.86,585.46l-47.59 135.98c-4.93,13.7 -11.25,32.09 -17.43,43.77 -21.44,-14.36 -41.6,-49.17 -60.34,-68.85l-62.05 -70.54c-19.27,-25.25 -122.23,-126.27 -149.06,-160.3l-67.66 -64.92c-15,-14.99 -27.51,-27.5 -42.5,-42.49 -8.1,-8.11 -13.67,-14.76 -22.44,-21.76 -10.52,-8.39 -13.77,-10.95 -23.46,-20.73 -44.07,-44.47 -91.71,-84.8 -137.63,-127.53 -52.9,-49.21 -111.65,-92.94 -169.64,-136.33 -76,-56.86 -146.28,-119.21 -225.96,-171.79l-157.69 -107.47c-49.71,-33.01 -164.3,-105.58 -219.82,-133.74 -58.55,-29.69 -113.45,-63.45 -172.3,-92.87 -173.83,-86.91 -306.19,-144.21 -485.49,-218.22 -21.38,-8.83 -39.91,-17.62 -62.79,-25.6 -287.08,-100.03 -520.19,-173.38 -825.98,-227.89 -170.3,-30.36 -370.96,-61.23 -548.7,-70.02 -54.39,-2.69 -113.68,-10.43 -166.63,-10.16l-84.89 -3.49c-58.95,-0.08 -117.94,0.12 -176.9,0.12 -2.49,-10.73 -9.83,-24.47 -14.56,-36.44l-48.86 -114.31c-22.93,-51.53 -43.1,-100.25 -64.3,-153.27 -26.46,-66.15 -65.81,-173.66 -85.01,-241.35 -24.27,-85.54 -54.07,-164.3 -72.55,-253.81 -6.37,-30.85 -14.1,-56.36 -21.35,-87.44 -27.98,-120 -53.39,-240.28 -70.54,-364.61 -3.85,-27.89 -10.38,-69.27 -10.38,-98.41zm-3691.94 435.15l0 132.58c0,82.22 5.74,155.67 6.66,234.71l11.27 168.91c1.77,13.25 4.49,41.27 5.61,55.58 28.6,367.42 94.86,677.36 181.81,1025.04l82.34 278.02c5.52,16.42 9.5,32.05 14.42,46.77l46.61 133.57c6.19,15.99 10.86,29.04 16.35,44.85l137.98 344.76 133.8 287.73c7.48,14.95 12.96,25.83 20.4,40.81 7.81,15.76 13.99,24.42 21.58,39.61 10.41,20.85 141.32,266.51 159.48,292.66 7.11,10.22 8.63,7.92 11.58,19.01 -16.67,0 -25.66,3.96 -40.51,7.08 -133.45,28 -243.25,43.63 -378.65,63.29 -29.52,4.29 -60.98,6.79 -88.32,10.27l-182.63 14.55c-3.86,-16.57 -16.75,-33.42 -24.9,-49.89 -5.33,-10.76 -8.1,-14.02 -13.58,-23.81 -5.57,-9.95 -8.18,-17.04 -13.63,-27.17l-150.71 -315.04c-31.14,-69.68 -82.31,-202.47 -106.97,-277.18 -34.14,-103.42 -63.2,-189.6 -91.38,-296.17 -35.7,-134.93 -57.7,-239.66 -83.53,-382.21 -17.57,-96.95 -24.4,-177.35 -37.38,-271.99 -7.94,-57.98 -17.89,-217.33 -21.87,-290.89 -5.64,-104.53 0.53,-199.17 0,-302.6l7.01 -145.97c24.6,-313.84 59.09,-505.84 132.39,-799.09 21.79,-87.16 45.63,-155.81 70.17,-239.2l81.83 -227.52c38.62,-96.33 73.07,-180.14 117.75,-273.21 4.71,-9.82 6.55,-16.3 11.24,-26.15 2.65,-5.59 3.89,-8.28 6.75,-13.65 2.37,-4.47 1.42,-2.98 3.69,-6.51 4.06,-6.32 1.34,-2.42 4.34,-5.86l-27.42 264.94c-4.58,60.2 -11.65,121.33 -13.28,183.91l-10.3 285.46zm51 -741.11c0.33,-0.34 1.01,0.54 1.01,1.01l-1.01 -1.01zm3603.55 -197.17l3.32 -224.46c-0.27,-64.49 11.6,-197.64 17.36,-268.2 3.4,-41.5 12.01,-86.68 16.71,-129.47 4.44,-40.39 10.69,-85.08 17.5,-125.29 16.98,-100.38 35.4,-201.93 60.01,-300.34 4.39,-17.56 12.89,-43.77 14.28,-60.51 55.64,0 119.49,-1.25 173.56,3.22 19.36,1.61 41.44,-0.9 61.03,0.16l227.57 13.81c168.52,13.16 364.73,36.4 529.64,68.68 131.82,25.79 265.66,49.52 395.21,84.13 31.96,8.54 61.77,16.28 94.52,24.46 30.83,7.7 62.55,17.27 92.88,26.11l273.69 86.67c16.36,5.41 28.16,10.54 42.46,15.33 134.34,44.89 302.4,111.78 429.09,172.64 15.26,7.32 26.89,11.65 41.91,19.28l120.15 56.63c79.11,39.94 159.67,78.67 235.99,124.36 100.87,60.38 204.8,114.83 302.49,180.25 107.99,72.31 215.12,143.8 319.13,221.4 68.36,51 138.01,102.01 202.29,158.07l285.81 251.32c33.67,26.86 62.42,60.16 93.08,90.5 10.85,10.74 19.32,15.59 30.73,27.06 11.58,11.67 16.77,20.47 28.81,32.38l274.03 297.1c18.4,22.63 28.47,83.98 36.18,113.4l47.66 190.32c16.05,65.72 28.5,133.9 39.78,201.58 14.6,87.52 31.17,174.71 38.08,261.09 1.57,19.56 2.08,36.5 4.63,56.56 13.28,104.15 22.85,339.75 22.85,459.89 -18.16,-12.16 -53.41,-60.58 -72.2,-80.78 -5,-5.38 -8.74,-8.08 -13.61,-13.59 -5.97,-6.76 -5.98,-8.46 -11.95,-15.24l-86.82 -93.36c-4.59,-5.49 -8.35,-8.72 -13.44,-13.76 -17.9,-17.74 -33.17,-33.16 -51,-50.99l-50.99 -54.39c-22.19,-22.11 -183.94,-179.59 -214.76,-203.39l-81 -71.97c-9.9,-9.43 -18.55,-16.18 -28.95,-25.45l-40.58 -34.21c-62.22,-52.63 -123.22,-105.63 -188.97,-154.4l-57.6 -44.38c-19.72,-16.29 -39.52,-30.14 -59.92,-45.47l-210.55 -149.8c-84.26,-56.41 -167.66,-111.85 -254.58,-163.56l-164.93 -96.84c-43.44,-26.12 -90.31,-47.39 -133.9,-73.48 -50.09,-29.99 -118.35,-61.91 -172.54,-89.23 -13.18,-6.64 -21.64,-9.58 -35.15,-15.84l-284.72 -130.03c-26.43,-11.11 -48.39,-20.05 -74.83,-30.56 -13.99,-5.56 -22.86,-9.98 -35.88,-15.11l-268.21 -98.95c-24.34,-8.13 -50.38,-19.03 -75.91,-26.08 -28.79,-7.95 -51.48,-16.38 -79.58,-25.8 -161.55,-54.19 -327.44,-90.81 -492.85,-132.67 -78.41,-19.85 -177.46,-38.32 -257.8,-51.57l-364.23 -53.92c-80.14,-11.09 -158.09,-13.98 -238.94,-22.82l-194.16 -13.22c-17.59,-0.02 -36.24,1.23 -53.07,-1.31 -32.02,-4.85 -69.63,-2.04 -103.43,-1.97 -36.26,0.09 -63.29,-3.4 -101.98,-3.4 -0.35,-15.37 -3.4,-13.51 -3.4,-30.59zm3831.32 -322.97zm0 0zm0 0c-14.56,-9.75 -28.96,-20.08 -43.13,-31.65 -14.77,-12.06 -27.41,-21.2 -42.34,-32.46 -82.53,-62.29 -272.67,-195.47 -356.31,-245.41l-138.47 -85.9c-16.79,-10.02 -29.77,-18.14 -46.7,-28.09 -9.41,-5.52 -14.56,-7.92 -23.85,-13.55l-316.94 -172.59c-17.94,-8.97 -31.96,-15.92 -49.86,-24.94 -17.92,-9.04 -33.05,-14.77 -51,-23.79 -197.21,-99.15 -497.95,-216.83 -696.21,-282.87 -154.34,-51.41 -308.25,-95.25 -466.65,-135.07l-247.25 -55.32c-84.78,-14.62 -166.08,-32.97 -253.98,-45.18l-266.34 -36.22c-65.9,-7.32 -214.77,-23.86 -274.82,-24.35 -17.73,-0.14 -18.7,-2.67 -33.92,-3.47 -12.28,-0.64 -24.7,0.89 -36.92,-0.48l-143.35 -6.22c-25.9,0.1 -45.08,-3.48 -74.71,-3.48 6.42,-12.15 11.36,-28.58 16.5,-41.29 30.95,-76.47 43.05,-119.82 82.14,-206.82l111.47 -235.29c7.99,-13.12 12.59,-23.56 19.87,-37.92l62.38 -114.4c54.01,0 240.27,21.73 290.43,29.12 97.65,14.39 184.28,28.22 276.45,46.52 253.68,50.34 505.83,127.49 742.93,222.54l169.01 72.37c10.07,5.14 16.5,7.63 28.18,12.62l292.82 149.11c147.21,87.31 279.54,162.62 417.64,265.68l294.83 232.11c8.74,6.7 11.36,10.51 19.58,17.81l44.23 37.37c7.34,7.26 12.7,13.7 20.35,20.43l123.99 117.38c8.94,8.84 13.72,10.53 22.28,18.52 8.98,8.4 10.37,13.41 18.54,22.25 32.33,34.96 81.41,79.68 119.01,122.37 98.78,112.18 164.08,188.48 257.58,310.15l67.47 92.3c12.26,16.21 21.1,31.54 33.52,48.07 8.16,10.87 28.39,38.2 31.55,50.04zm-6013.85 628.93c0,691.48 107.09,1322.63 317.44,1953.47 42.87,128.58 84.14,234.47 134.7,361.65 11.64,29.28 24.52,55.81 36.43,85.95l287.19 583.1c7.7,12.67 14.66,25.84 21.97,39.22 15.97,29.23 65.52,105.61 69.16,121.22l-265.34 163c-91.77,52.84 -154.15,84.35 -250.22,130.54 -12.21,5.87 -20.79,8.54 -32.93,14.66 -11.9,6 -19.68,10.18 -31.66,15.94 -94.1,45.16 -364.52,157.29 -443.12,175.59l-208.03 -366.49c-22.21,-36.47 -91.25,-183.74 -114.98,-231.78 -61.68,-124.82 -158.89,-367.84 -201.84,-491.68 -136.86,-394.68 -210.4,-691.74 -271.7,-1111.93 -15,-102.9 -25.08,-208.32 -33.15,-313.6l-16.8 -329.96 7.3 -427.85c7.24,-64.59 10.5,-170.05 18.42,-226.35l26.28 -218.49c13.15,-100.38 32.89,-213.19 53.11,-314.05 6.98,-34.82 13.34,-66.83 21.35,-101.03 56.43,-240.97 103.53,-426.28 187.44,-665.85 10.08,-28.75 91.18,-101.96 117,-127.77 38.66,-38.67 116.54,-115.34 157.74,-148.23l48.09 -43.69c143.13,-120.35 312.78,-256.37 470.87,-355.23 60.47,-37.82 127.23,-81.98 189.88,-116.09 14.3,-7.78 24.99,-15.45 38.56,-22.63l-69.21 216.35c-22.29,75.08 -44.3,147.79 -64.1,224.87 -42.92,167.03 -100.51,420 -124.49,592.82 -9.99,71.94 -28.58,180.5 -34.66,250.91 -3.83,44.33 -9.95,86.77 -13.8,132.38 -14.92,177 -26.9,357.37 -26.9,551.03zm1713.39 -360.36l4.32 209.85c2.82,20.57 0.29,48.7 3.41,71.39l9.29 133.48c2.89,112.84 43.14,382.17 69.38,511.96 8.48,41.94 17.26,82.49 24.91,121.26 42.88,217.2 121.18,464.7 198.54,671.76l40.83 105.35c13.71,34.35 27.96,68.17 42.19,103.99l88.45 200.54c3.46,18.25 -98.95,162.7 -110.09,179.41 -19.54,29.31 -38.73,56.15 -58.49,84.29 -9.58,13.64 -20.51,27.43 -30.58,40.82 -52.95,70.36 -175.33,228.85 -226.92,283.02l-50.84 57.94c-47.21,56.15 -187.52,197.52 -232.98,239.56l-37.44 33.96c-48.46,48.63 -102.09,93.44 -155.98,136.38 -11.03,8.79 -30.55,27.52 -43.74,31.04 -5.03,-21.55 -100.93,-185.95 -115.44,-210.92l-56.82 -109.77c-6.6,-13.3 -11.95,-23.96 -18.12,-36.26 -12.56,-25.02 -23.3,-49.99 -36.27,-75.93 -12.56,-25.11 -23.8,-48.64 -35.07,-73.71l-67.56 -153.41c-36.59,-91.78 -76.02,-184.15 -109.71,-277.85l-42.47 -124.1c-5.11,-15.32 -9.91,-27.35 -14.42,-39.97 -24.8,-69.26 -43.27,-140.61 -63.88,-211.5 -51.77,-178.1 -93.23,-355.57 -124.49,-538.41l-16.56 -95.63c-17.31,-102.33 -59.82,-422.19 -60.61,-544.52 -0.13,-20.31 -3.65,-30.38 -3.43,-54.36 0.2,-22.59 -3.55,-29.23 -3.58,-50.82l-3.28 -353.67c0,-46.28 3.52,-82.35 3.32,-125.86 -0.28,-60.86 15.33,-231.68 20.73,-302.23 7.29,-95.2 25.48,-197.34 36.53,-289.83 17.86,-149.49 52.47,-291.83 83.05,-437.09 14.47,-68.76 34.77,-142.59 52.85,-208.92 30.15,-110.65 66.31,-241.56 106.57,-348.97l125.39 -330.15c13.3,-30.34 27.2,-60.92 39.73,-92.86 14.92,-38.02 15.69,-31.86 77.04,-52.14 34.24,-11.33 61.64,-21.63 96.02,-33.16 33.89,-11.37 64.75,-19.14 98.6,-30.59 139.02,-47.03 373.29,-96.77 529.67,-123.05 85.3,-14.34 261.84,-41.49 348.76,-42.2l122.33 -10.25c-0.96,11.51 -18.58,47.48 -23.79,57.81 -66.79,132.29 -122.95,272.62 -172.96,411.76 -60.93,169.51 -113.51,332.86 -157.5,508.82 -44.14,176.56 -81.5,364.23 -107.1,559.22l-35.01 379.74c-0.71,13.19 0.74,27.63 0.03,40.82l-6.81 203.96z"/>
 </g>
</svg>
